<svg xmlns="http://www.w3.org/2000/svg" viewBox="0 0 898.16 396.9"><defs><style>.cls-1{fill:#003773;}.cls-2{fill:#bed73d;}.cls-3{fill:#808285;}.cls-4{fill:#6a737b;}</style></defs><title>Asset 1</title><g id="Layer_2" data-name="Layer 2"><g id="Layer_1-2" data-name="Layer 1"><path class="cls-1" d="M34.76,160.37h9.17l33.79,86.17H68.91l-10.5-26.79H19.19L8.81,246.54H0Zm-13,52.38H55.64L39,168.58Z"/><path class="cls-1" d="M130.23,203.82c-2.06-9.29-7.73-15-17.62-15-14.61,0-21.85,13.28-21.85,26.56S98,242,112.61,242c9.41,0,17.13-7.36,18.1-17.74h7.6c-2.05,15-11.82,24.13-25.7,24.13-19.07,0-29.45-15.08-29.45-32.94s10.38-32.95,29.45-32.95c13.27,0,23.53,7.12,25.22,21.36Z"/><path class="cls-1" d="M195,203.82c-2-9.29-7.73-15-17.62-15-14.61,0-21.85,13.28-21.85,26.56S162.81,242,177.42,242c9.41,0,17.14-7.36,18.1-17.74h7.61c-2.06,15-11.83,24.13-25.71,24.13-19.07,0-29.45-15.08-29.45-32.94s10.38-32.95,29.45-32.95c13.28,0,23.53,7.12,25.22,21.36Z"/><path class="cls-1" d="M220.38,217.46c.12,11.1,5.92,24.5,20.52,24.5C252,242,258,235.44,260.45,226h7.61c-3.26,14.12-11.47,22.32-27.16,22.32-19.79,0-28.12-15.2-28.12-32.94,0-16.42,8.33-32.95,28.12-32.95,20,0,28,17.5,27.4,35Zm40.32-6.4c-.37-11.46-7.49-22.21-19.8-22.21s-19.31,10.87-20.52,22.21Z"/><path class="cls-1" d="M318,202.49c-.37-9.41-7.61-13.64-16.3-13.64-6.76,0-14.72,2.66-14.72,10.75,0,6.75,7.72,9.17,12.91,10.5l10.14,2.29c8.69,1.33,17.74,6.39,17.74,17.26,0,13.51-13.39,18.7-25,18.7-14.48,0-24.38-6.75-25.59-22h7.61c.6,10.25,8.2,15.57,18.34,15.57,7.12,0,17-3.14,17-11.82,0-7.25-6.76-9.66-13.64-11.36l-9.78-2.17c-9.89-2.65-17.38-6-17.38-16.65,0-12.67,12.43-17.5,23.42-17.5,12.43,0,22.33,6.52,22.81,20Z"/><path class="cls-1" d="M378.25,202.49c-.36-9.41-7.6-13.64-16.29-13.64-6.76,0-14.73,2.66-14.73,10.75,0,6.75,7.73,9.17,12.92,10.5l10.13,2.29c8.7,1.33,17.75,6.39,17.75,17.26,0,13.51-13.4,18.7-25,18.7-14.49,0-24.39-6.75-25.59-22h7.6c.6,10.25,8.21,15.57,18.35,15.57,7.12,0,17-3.14,17-11.82,0-7.25-6.76-9.66-13.63-11.36L357,216.61c-9.9-2.65-17.38-6-17.38-16.65,0-12.67,12.43-17.5,23.42-17.5,12.42,0,22.32,6.52,22.8,20Z"/><polygon class="cls-2" points="407.78 160.37 467.28 160.37 467.28 167.37 415.99 167.37 415.99 198.51 464.02 198.51 464.02 205.51 415.99 205.51 415.99 239.54 467.88 239.54 467.88 246.54 407.78 246.54 407.78 160.37"/><path class="cls-2" d="M506.75,160.37h9.17l33.79,86.17H540.9l-10.5-26.79H491.18L480.8,246.54H472Zm-13,52.38h33.91L511,168.58Z"/><path class="cls-2" d="M559.73,160.37H598c15.45,0,25.58,9,25.58,24.62S613.44,209.61,598,209.61h-30v36.93h-8.21Zm8.21,42.24h28.24c11.34,0,19.19-5.79,19.19-17.62s-7.85-17.62-19.19-17.62H567.94Z"/><path class="cls-3" d="M832.88,183.75c.06,11.84-3.24,22.35-6.39,32.27.13,1.69-7.12,22.74-9.79,37-2.59,13.8-6.88,26.73-4,39.71a7.11,7.11,0,0,0,3.64,4.74c-2.67-13.36,2-26.7,4.81-40.91,3-15.19,11.29-37.67,11.15-39.47,3.59-10.58,7.34-21.8,7.28-34.44,0-8.59-3.34-16.69-4.16-25.48-3.53-37.63-10.29-78.3-28.11-101.79-2.4,3-2.52,6.68-1.79,10.65,14.88,22.2,20.63,59.4,23.65,93.88C830,168.12,832.85,175.7,832.88,183.75Z"/><path class="cls-3" d="M751.13,12.67c12.46,10.53,15.63,32,26.52,44.37-.11-3.53-1.58-7.67-3-12-10.8-13.43-14.78-34.4-28.16-45-5,2.24-3.11,12.46-2.27,16.45a70.64,70.64,0,0,0,6.13,16.36c-.48-1.57-.9-3.14-1.22-4.73C748.41,24.35,746.72,14.77,751.13,12.67Z"/><path class="cls-3" d="M790.8,56.68c5.19,11.44,9.54,23.72,15.69,33.75-.34-6.28-4-13.67-3.85-19.81C798.86,63,795.46,54.78,791.69,47c-5.8-12-16.57-33.75-19.79-33.18s-1.54,11.35.23,17.13c.13-1.82-.61-4.25,1.3-5.33S785.71,45.45,790.8,56.68Z"/><path class="cls-3" d="M728,23.68c2.75-1.71,4.14,1,10.72,7.11,10.12,12.59,16.27,29.86,27.53,41.11a53,53,0,0,0-2.56-8.71c-12.82-12-19.82-30.42-31.34-43.86-4.7-8.08-11.26-11.88-10.72.09,2.06,13.7,7.21,24,13.09,33.43.85.9,1.68,1.84,2.51,2.79C733.58,48.52,729.31,33.43,728,23.68Z"/><path class="cls-3" d="M885.11,307.28c-.41-6-4.08-9.27-22.26-14.46.65,1.18,21.26,7.09,19.29,17.43,3,.37,13.35,4.82,9.64,10.38C887.42,314.36,867.67,314,864,318c-1.39.77-6.33-1.37-15.47,1.4C830.3,325,811.67,344,725.07,347.25c-2,2.76-4.6,7.44-9.9,7.1,2.28,4.65-8.33,3.59-11-.7,3.4.35,3.19-1.49,2.91-3.22-.45-2.74-4.84-4-8.34-5.51-21.11-4.92-29.92-6.26-48.8-1.17-21.61,5.83-60.21,19.64-80.05,26.24-10,3.33-43.85,18.18-46.31,16.12-1-1.52,12.07-9.83,17.13-13.25,5.55-3.66,26.36-16.83,21.75-21.31-3.71-3.58-62.75,4.19-70.38,7.48,14.17-.69,61.2-8.12,59.5-.77-1.34,5.81-37.23,31.58-59.15,38.64,12.28,0,24.33-4.59,35.75-8.16,22.61-7.05,70.23-25.83,94.86-32.05,21.52-5.44,45.41-11.4,62.25-6.72,4,1.66,12.21,4.81,12.72,7.74.32,1.84.56,3.81-3.32,3.44,3,4.58,15.11,5.7,12.51.74,6,.37,7.28-1.49,9.6-4.43,10.66-2.7,10.75-8.78,12.51-9,10.66-1.38,49.33,4.82,113.06-20.45,5.31-2.1,25.12-4.51,26.71-5.33,2.65-1.78,21.94-3.89,26,6.49C902.75,323.3,894.75,312.85,885.11,307.28Z"/><path class="cls-3" d="M753.89,86.3c-1.29-6.3-3.37-11.49-8.56-16.16,1.13,2.2,3.64,8.3,3.89,10.38-3.89,0-6.67-6-10.12-10.12-2.48-3-9.26-12.75-10.9-14.28,3,4.47,9.08,15.84,12.2,20C743.33,80,748.3,86.57,753.89,86.3Z"/><path class="cls-1" d="M726.7,134.05c-8.12-12.92-20.61-18.12-13.93-31.09,4.29-8.32-6.73-23.7-2.32-27.1-.81-2,6.86,1.32,2.58-10.85,1.08-1,.08-3.34-.21-5-.23-1.23,2-3,1.71-4.34-.39-1.54-2.74-5.2-2.44-6.5.25-1.07,1.18.45,2.44-.22,1.28-1-.64-5.59-1.41-6.55-1.42-1.78-1.22-5.32-8.75-11.33,0,.07-1,0-.68,1s.52,7.21-.52,6.71-1-.44-1.15.21c-.35,1.39,2.33,5.29,2.77,6.94.37,1.41-2.2,3.32-1.95,4.63.33,1.77,1.48,4.28.24,5.33,4.88,13-3.86,9.45-2.93,11.58-5,3.64,7.53,20.06,2.64,28.93-7.61,13.86,6.61,19.4,15.87,33.19,5.69,8.49,28.83,32.87,26,38.21-5.19,9.86-24.95,9.58-24.95,9.58-7.55,2.88,5.6,28,2.31,30.89-.44,3.33-14.36,4.43-13.41,6.79.18,1.73,8.71-3.77,11.33,4.83-2.77,9.86-17.56,18-14,29.57,3.3,10.7,12,20,10.07,31.39-1.38,8.19-4.1,16-10.11,22.7a41,41,0,0,1-6,5.4c6.09-3.44,11.91-7.48,15.62-11.91,5.27-6.31,7.66-13.58,8.87-21.26,1.68-10.66-5.94-19.39-8.83-29.4-3.13-10.87,9.85-18.47,12.28-27.71-2.3-8.06-9.79-2.91-9.94-4.52-.84-2.22,11.38-3.25,11.76-6.37,2.9-2.72-8.65-26.23-2-28.94,0,0,17.34.27,21.9-9C752,164.84,731.69,142,726.7,134.05Z"/><path class="cls-2" d="M696.35,68.76c-6.45-13.91-21.07-25-27.68-39.16a50.39,50.39,0,0,1-2.4-6,41.86,41.86,0,0,0-11.86-9.32c-3.88,3.18.14,12.24,1.78,15.76a51.69,51.69,0,0,0,2.67,4.89l0,0C672.06,44.85,682.39,60.43,696.35,68.76Z"/><path class="cls-2" d="M695.13,45.55c.43-1-1-3.95-1-6.15l-.54-1c-4.66-6.36-9.53-12.25-15.82-15.59a15.57,15.57,0,0,0-.22,2.43c5.55,6.4,10.48,14.11,16.12,20.3A1.64,1.64,0,0,0,695.13,45.55Z"/><path class="cls-2" d="M691.38,85.11C680.16,70.21,664.53,63.55,655.81,44c-.94-.75-1.9-1.49-2.88-2.18-2.47,2.53-5.79,0-7.71,1.87A59.23,59.23,0,0,0,655.71,59.9c8.41,6.54,17.15,15,24.3,19.83C683.35,82,686.86,86.38,691.38,85.11Z"/><path class="cls-2" d="M686.52,181.17s14.83-3.25,17-12.47c1.15-5-20.52-21.42-26.3-27.57-9.39-10-21-12.13-17.8-25.13,2.07-8.34-10.26-19.94-7.15-23.89-1.07-1.63,6.1-.18.13-10.26.74-1.11-.57-3-1.13-4.44-.43-1.07,1.16-3.13.63-4.25-.63-1.31-3.33-4.12-3.32-5.36,0-1,1.09.18,2-.68.91-1.15-1.6-4.89-2.44-5.6-1.55-1.31-2-4.54-9.62-8.42,0,.06-.87.19-.39,1s1.8,6.37.83,6.13-.93-.19-.94.41c0,1.33,3,4.3,3.68,5.69.59,1.19-1.24,3.43-.77,4.55.62,1.52,2.07,3.55,1.22,4.74,6.64,10.7-1.49,9.27-.3,11-3.59,4.27,10.25,16.5,7.78,25.46-3.85,14,9.34,16.1,19.85,26.63,6.47,6.48,30.85,23.74,29.47,29.1-2.54,9.9-19.44,13.62-19.44,13.62-5.89,4.11,10.11,24,7.86,27.29.26,3.08-11.4,6.87-10.13,8.8.48,1.52,6.7-5.14,10.57,2.06-.48,9.42-11.54,19.68-6.29,29.39,4.85,8.94,14,15.56,14.57,26.17.39,7.64-.45,15.17-4.28,22.43a39.38,39.38,0,0,1-4.11,6.07c4.54-4.33,8.73-9.12,11-13.85,3.29-6.72,3.94-13.75,3.51-20.88-.6-9.92-8.76-16.22-13.14-24.65-4.74-9.13,4.88-18.57,5.19-27.36-3.5-6.78-8.9-.64-9.34-2.07-1.14-1.82,9.08-5.2,8.81-8.08C695.71,203.73,681.39,184.93,686.52,181.17Z"/><path class="cls-4" d="M206.67,284.65a7.63,7.63,0,0,1,2.53.41,6,6,0,0,1,2,1.15,5.45,5.45,0,0,1,1.35,1.87,6.13,6.13,0,0,1,.48,2.48,8.41,8.41,0,0,1-.62,3.3,6.68,6.68,0,0,1-1.71,2.45,7.3,7.3,0,0,1-2.6,1.51,10.05,10.05,0,0,1-3.32.53h-8.46l-2.21,10.26h-2.29l5.17-24Zm-1.82,11.75a7.28,7.28,0,0,0,2.32-.37,5.47,5.47,0,0,0,1.88-1.08,4.74,4.74,0,0,0,1.26-1.72,5.78,5.78,0,0,0,.45-2.34,5.28,5.28,0,0,0-.35-2,3.41,3.41,0,0,0-1-1.32,4,4,0,0,0-1.53-.72,8.14,8.14,0,0,0-2-.22h-7l-2.11,9.8Z"/><path class="cls-4" d="M217.5,301.87a7.6,7.6,0,0,0,.31,2.18,4.59,4.59,0,0,0,.92,1.72,4.23,4.23,0,0,0,1.58,1.15,5.48,5.48,0,0,0,2.23.42,5.57,5.57,0,0,0,3.59-1.19,6.37,6.37,0,0,0,2.08-3.11h2.11a8.66,8.66,0,0,1-2.82,4.5,7.87,7.87,0,0,1-5.06,1.54,6.76,6.76,0,0,1-5.25-1.94,7.61,7.61,0,0,1-1.8-5.37,13.48,13.48,0,0,1,.62-4,11.23,11.23,0,0,1,1.83-3.5,9.45,9.45,0,0,1,2.95-2.49,8.33,8.33,0,0,1,4-.93,7.55,7.55,0,0,1,2.79.48,5.88,5.88,0,0,1,2.06,1.38,5.75,5.75,0,0,1,1.29,2.13,8.26,8.26,0,0,1,.44,2.75c0,.49,0,1,0,1.48s-.07,1-.14,1.5H217.61A7.93,7.93,0,0,0,217.5,301.87Zm11.7-3.81c0-.21,0-.43,0-.65a4.87,4.87,0,0,0-1.26-3.53,4.61,4.61,0,0,0-3.48-1.31,5.54,5.54,0,0,0-2.39.52,7,7,0,0,0-2,1.38,7.78,7.78,0,0,0-1.43,2,9.62,9.62,0,0,0-.84,2.32h11.31C229.18,298.5,229.19,298.27,229.2,298.06Z"/><path class="cls-4" d="M247.35,291.25a5.82,5.82,0,0,1,3.58,3.46,7.72,7.72,0,0,1,.5,2.86,15.22,15.22,0,0,1-.6,4.26,11.75,11.75,0,0,1-1.8,3.69,8.9,8.9,0,0,1-3,2.59,8.67,8.67,0,0,1-4.21,1,6.58,6.58,0,0,1-5.13-1.94,7.46,7.46,0,0,1-1.78-5.24,13.45,13.45,0,0,1,.64-4.13,10.69,10.69,0,0,1,1.88-3.55,9.53,9.53,0,0,1,3-2.49,8.82,8.82,0,0,1,4.11-.93A7.93,7.93,0,0,1,247.35,291.25Zm-2,15.2a7.84,7.84,0,0,0,2.21-2.27,10.82,10.82,0,0,0,1.34-3,11.88,11.88,0,0,0,.46-3.15,5.9,5.9,0,0,0-1.28-3.93,4.7,4.7,0,0,0-3.82-1.51,5.61,5.61,0,0,0-3.09.86,7.66,7.66,0,0,0-2.25,2.18,10.51,10.51,0,0,0-1.38,2.95,11.45,11.45,0,0,0-.47,3.14,6.2,6.2,0,0,0,1.28,4.07,4.75,4.75,0,0,0,3.93,1.57A5.42,5.42,0,0,0,245.31,306.45Z"/><path class="cls-4" d="M260.69,291.29l-.67,3.13h.07a8.87,8.87,0,0,1,2.56-2.67,6.71,6.71,0,0,1,3.75-.95,7.55,7.55,0,0,1,2.9.51,5.74,5.74,0,0,1,2.05,1.45,6,6,0,0,1,1.22,2.23,9.69,9.69,0,0,1,.4,2.88,12.94,12.94,0,0,1-.65,4,11.76,11.76,0,0,1-1.9,3.59,10,10,0,0,1-3,2.6,7.67,7.67,0,0,1-3.93,1,8.39,8.39,0,0,1-1.95-.22,5.28,5.28,0,0,1-1.67-.68,4.31,4.31,0,0,1-1.25-1.23,4.51,4.51,0,0,1-.67-1.79h-.06L255.79,315h-2.08l5.07-23.7ZM263,293.5a8.13,8.13,0,0,0-2.36,2.35,10.94,10.94,0,0,0-1.46,3.15,11.74,11.74,0,0,0-.51,3.34A5.15,5.15,0,0,0,259.9,306a4.68,4.68,0,0,0,3.58,1.34,5.79,5.79,0,0,0,3.2-.91,7.86,7.86,0,0,0,2.32-2.31,11.36,11.36,0,0,0,1.39-3.11,12.36,12.36,0,0,0,.47-3.27,5.84,5.84,0,0,0-1.14-3.69,4.2,4.2,0,0,0-3.53-1.48A5.73,5.73,0,0,0,263,293.5Z"/><path class="cls-4" d="M283.51,284.65l-5.17,24h-2.08l5.14-24Z"/><path class="cls-4" d="M287.5,301.87a7.61,7.61,0,0,0,.3,2.18,4.6,4.6,0,0,0,.93,1.72,4.27,4.27,0,0,0,1.57,1.15,6.07,6.07,0,0,0,5.83-.77,6.44,6.44,0,0,0,2.08-3.11h2.11a8.66,8.66,0,0,1-2.82,4.5,7.89,7.89,0,0,1-5.06,1.54,6.8,6.8,0,0,1-5.26-1.94,7.66,7.66,0,0,1-1.79-5.37,13.18,13.18,0,0,1,.62-4,10.83,10.83,0,0,1,1.83-3.5,9.34,9.34,0,0,1,3-2.49,8.27,8.27,0,0,1,4-.93,7.55,7.55,0,0,1,2.79.48,5.88,5.88,0,0,1,2.06,1.38,5.75,5.75,0,0,1,1.29,2.13,8.26,8.26,0,0,1,.44,2.75c0,.49,0,1,0,1.48s-.06,1-.13,1.5H287.6A9.18,9.18,0,0,0,287.5,301.87Zm11.7-3.81c0-.21,0-.43,0-.65a4.91,4.91,0,0,0-1.25-3.53,4.61,4.61,0,0,0-3.48-1.31,5.62,5.62,0,0,0-2.4.52,7.15,7.15,0,0,0-1.94,1.38,7.78,7.78,0,0,0-1.43,2,9.62,9.62,0,0,0-.84,2.32h11.31C299.18,298.5,299.19,298.27,299.2,298.06Z"/><path class="cls-4" d="M321.36,291.29l-3.72,17.32h-2.09l3.7-17.32Zm1.44-6.64-.74,3.39H320l.74-3.39Z"/><path class="cls-4" d="M329.51,291.29l-.6,3.16H329a8.48,8.48,0,0,1,2.6-2.6,6.43,6.43,0,0,1,3.57-1.05,7.75,7.75,0,0,1,2.1.26,4.87,4.87,0,0,1,1.66.82,3.78,3.78,0,0,1,1.09,1.45,5.26,5.26,0,0,1,.39,2.13,11.37,11.37,0,0,1-.27,2.05l-2.38,11.1h-2.12L338,297.44c.06-.27.12-.56.17-.86a6.77,6.77,0,0,0,.06-.89,3.22,3.22,0,0,0-.3-1.46,2.66,2.66,0,0,0-.8-1,3.34,3.34,0,0,0-1.16-.54,5.57,5.57,0,0,0-1.36-.17,5.28,5.28,0,0,0-2.22.5,7.22,7.22,0,0,0-2,1.43,9,9,0,0,0-1.57,2.25,11.41,11.41,0,0,0-1,3L326,308.61h-2.08l3.69-17.32Z"/><path class="cls-4" d="M361.93,293.07l-3.42,15.54h-2.12l3.42-15.54h-3l.41-1.78h3l.54-2.51a6.23,6.23,0,0,1,1.44-3,4.19,4.19,0,0,1,3.19-1.11c.38,0,.75,0,1.11,0a4.39,4.39,0,0,1,1.07.2l-.37,1.74-.65-.13a3.51,3.51,0,0,0-.66-.07,3.09,3.09,0,0,0-2.11.59,3.62,3.62,0,0,0-.94,1.86l-.5,2.41h3.42l-.4,1.78Z"/><path class="cls-4" d="M379.5,291.25a5.93,5.93,0,0,1,2.16,1.32,6.05,6.05,0,0,1,1.41,2.14,7.52,7.52,0,0,1,.5,2.86,15.22,15.22,0,0,1-.6,4.26,11.33,11.33,0,0,1-1.8,3.69,9,9,0,0,1-3,2.59,8.7,8.7,0,0,1-4.21,1,6.61,6.61,0,0,1-5.14-1.94,7.51,7.51,0,0,1-1.78-5.24,13.75,13.75,0,0,1,.64-4.13,10.88,10.88,0,0,1,1.88-3.55,9.57,9.57,0,0,1,3-2.49,8.77,8.77,0,0,1,4.11-.93A8,8,0,0,1,379.5,291.25Zm-2.05,15.2a7.84,7.84,0,0,0,2.21-2.27,10.85,10.85,0,0,0,1.35-3,11.86,11.86,0,0,0,.45-3.15,5.9,5.9,0,0,0-1.28-3.93,4.7,4.7,0,0,0-3.82-1.51,5.65,5.65,0,0,0-3.09.86,7.91,7.91,0,0,0-2.25,2.18,10.22,10.22,0,0,0-1.37,2.95,11.08,11.08,0,0,0-.47,3.14,6.19,6.19,0,0,0,1.27,4.07,4.75,4.75,0,0,0,3.93,1.57A5.42,5.42,0,0,0,377.45,306.45Z"/><path class="cls-4" d="M401.36,295a3.52,3.52,0,0,0-.86-1.29,3.89,3.89,0,0,0-1.34-.8,5.06,5.06,0,0,0-1.73-.29,6.25,6.25,0,0,0-3.3.84,7.73,7.73,0,0,0-2.34,2.18,9.7,9.7,0,0,0-1.39,3A12.94,12.94,0,0,0,390,302a7.67,7.67,0,0,0,.28,2.13,4.65,4.65,0,0,0,.89,1.71,4.15,4.15,0,0,0,1.51,1.12,5.25,5.25,0,0,0,2.15.41,5.43,5.43,0,0,0,3.57-1.21,6.88,6.88,0,0,0,2.13-3.12h2.12a9,9,0,0,1-3,4.54,8.18,8.18,0,0,1-5.14,1.53,6.25,6.25,0,0,1-4.95-1.94,7.51,7.51,0,0,1-1.72-5.17,13.39,13.39,0,0,1,.63-4,11.64,11.64,0,0,1,1.85-3.59,9.72,9.72,0,0,1,2.95-2.57,7.86,7.86,0,0,1,4-1,9.17,9.17,0,0,1,2.62.35,5.59,5.59,0,0,1,2.08,1.09,4.79,4.79,0,0,1,1.34,1.84,6.4,6.4,0,0,1,.44,2.62h-2.12A4,4,0,0,0,401.36,295Z"/><path class="cls-4" d="M418.44,308.61l.6-3.15H419a8.11,8.11,0,0,1-2.6,2.58,6.42,6.42,0,0,1-3.57,1,8.17,8.17,0,0,1-2.1-.25A4.5,4.5,0,0,1,409,308a3.71,3.71,0,0,1-1.09-1.45,5.27,5.27,0,0,1-.38-2.13,11.16,11.16,0,0,1,.26-2.05l2.39-11.11h2.11l-2.42,11.18c-.06.27-.12.55-.16.86a5.42,5.42,0,0,0-.07.89,3.22,3.22,0,0,0,.3,1.44,2.57,2.57,0,0,0,.81,1,3.21,3.21,0,0,0,1.15.54,5.57,5.57,0,0,0,1.36.17,5,5,0,0,0,2.23-.51,6.58,6.58,0,0,0,2-1.42,9.53,9.53,0,0,0,1.56-2.25,12.37,12.37,0,0,0,1-3l1.91-8.9h2.12l-3.73,17.32Z"/><path class="cls-4" d="M429.53,305.09a3.66,3.66,0,0,0,1.1,1.34,4.29,4.29,0,0,0,1.58.71,8.34,8.34,0,0,0,1.8.2,5.93,5.93,0,0,0,1.47-.19,4.64,4.64,0,0,0,1.41-.57,3.24,3.24,0,0,0,1.06-1,2.45,2.45,0,0,0,.42-1.44,2.36,2.36,0,0,0-.42-1.44,4.07,4.07,0,0,0-1.07-1,8.06,8.06,0,0,0-1.5-.74c-.56-.21-1.12-.43-1.67-.66s-1.12-.46-1.68-.72a6.34,6.34,0,0,1-1.5-.94,4.46,4.46,0,0,1-1-1.31,4.28,4.28,0,0,1,.2-4,5,5,0,0,1,1.54-1.46,7.21,7.21,0,0,1,2.08-.84,10,10,0,0,1,4.7,0,5,5,0,0,1,2,1,4.41,4.41,0,0,1,1.28,1.73,6.2,6.2,0,0,1,.42,2.56h-2.12a3.65,3.65,0,0,0-.23-1.71,3.08,3.08,0,0,0-.86-1.17,3.62,3.62,0,0,0-1.32-.69,5.87,5.87,0,0,0-1.65-.22,8.37,8.37,0,0,0-1.46.14,4.9,4.9,0,0,0-1.37.45,2.88,2.88,0,0,0-1,.89,2.42,2.42,0,0,0-.42,1.47,2,2,0,0,0,.3,1.08,3.06,3.06,0,0,0,.81.84,6.32,6.32,0,0,0,1.15.67c.44.2.9.4,1.4.6l1.89.76a8.65,8.65,0,0,1,1.81,1,5.29,5.29,0,0,1,1.38,1.37,3.47,3.47,0,0,1,.55,2,4.6,4.6,0,0,1-.62,2.49,5,5,0,0,1-1.62,1.63,7.38,7.38,0,0,1-2.25.88,11.72,11.72,0,0,1-2.49.27,9.13,9.13,0,0,1-2.46-.33,5.67,5.67,0,0,1-2.1-1.08,5.13,5.13,0,0,1-1.44-1.9A5.87,5.87,0,0,1,427,303h2.08A4.69,4.69,0,0,0,429.53,305.09Z"/></g></g></svg>