<svg xmlns="http://www.w3.org/2000/svg" width="30" height="32" viewBox="0 0 30 32"><defs><style>.a{fill:#ec1010;}</style></defs><path class="a" d="M0,29a3.113,3.113,0,0,0,3.214,3H26.786A3.113,3.113,0,0,0,30,29V12H0ZM21.429,16.75a.78.78,0,0,1,.8-.75h2.679a.78.78,0,0,1,.8.75v2.5a.78.78,0,0,1-.8.75H22.232a.78.78,0,0,1-.8-.75Zm0,8a.78.78,0,0,1,.8-.75h2.679a.78.78,0,0,1,.8.75v2.5a.78.78,0,0,1-.8.75H22.232a.78.78,0,0,1-.8-.75Zm-8.571-8a.78.78,0,0,1,.8-.75h2.679a.78.78,0,0,1,.8.75v2.5a.78.78,0,0,1-.8.75H13.661a.78.78,0,0,1-.8-.75Zm0,8a.78.78,0,0,1,.8-.75h2.679a.78.78,0,0,1,.8.75v2.5a.78.78,0,0,1-.8.75H13.661a.78.78,0,0,1-.8-.75Zm-8.571-8a.78.78,0,0,1,.8-.75H7.768a.78.78,0,0,1,.8.75v2.5a.78.78,0,0,1-.8.75H5.089a.78.78,0,0,1-.8-.75Zm0,8a.78.78,0,0,1,.8-.75H7.768a.78.78,0,0,1,.8.75v2.5a.78.78,0,0,1-.8.75H5.089a.78.78,0,0,1-.8-.75ZM26.786,4H23.571V1A1.041,1.041,0,0,0,22.5,0H20.357a1.041,1.041,0,0,0-1.071,1V4H10.714V1A1.041,1.041,0,0,0,9.643,0H7.5A1.041,1.041,0,0,0,6.429,1V4H3.214A3.113,3.113,0,0,0,0,7v3H30V7A3.113,3.113,0,0,0,26.786,4Z" transform="translate(0)"/></svg>