<svg xmlns="http://www.w3.org/2000/svg" width="29.155" height="31.099" viewBox="0 0 29.155 31.099">
  <path id="Icon_awesome-calendar-alt" data-name="Icon awesome-calendar-alt" d="M0,28.183A3.026,3.026,0,0,0,3.124,31.1H26.031a3.026,3.026,0,0,0,3.124-2.916V11.662H0Zm20.825-11.9a.758.758,0,0,1,.781-.729h2.6a.758.758,0,0,1,.781.729v2.43a.758.758,0,0,1-.781.729h-2.6a.758.758,0,0,1-.781-.729Zm0,7.775a.758.758,0,0,1,.781-.729h2.6a.758.758,0,0,1,.781.729v2.43a.758.758,0,0,1-.781.729h-2.6a.758.758,0,0,1-.781-.729ZM12.5,16.278a.758.758,0,0,1,.781-.729h2.6a.758.758,0,0,1,.781.729v2.43a.758.758,0,0,1-.781.729h-2.6a.758.758,0,0,1-.781-.729Zm0,7.775a.758.758,0,0,1,.781-.729h2.6a.758.758,0,0,1,.781.729v2.43a.758.758,0,0,1-.781.729h-2.6a.758.758,0,0,1-.781-.729Zm-8.33-7.775a.758.758,0,0,1,.781-.729h2.6a.758.758,0,0,1,.781.729v2.43a.758.758,0,0,1-.781.729h-2.6a.758.758,0,0,1-.781-.729Zm0,7.775a.758.758,0,0,1,.781-.729h2.6a.758.758,0,0,1,.781.729v2.43a.758.758,0,0,1-.781.729h-2.6a.758.758,0,0,1-.781-.729ZM26.031,3.887H22.908V.972A1.011,1.011,0,0,0,21.866,0H19.784a1.011,1.011,0,0,0-1.041.972V3.887h-8.33V.972A1.011,1.011,0,0,0,9.371,0H7.289A1.011,1.011,0,0,0,6.248.972V3.887H3.124A3.026,3.026,0,0,0,0,6.8V9.718H29.155V6.8A3.026,3.026,0,0,0,26.031,3.887Z" fill="#bdd63b"/>
</svg>
