<svg xmlns="http://www.w3.org/2000/svg" width="30" height="32" viewBox="0 0 30 32"><defs><style>.a{fill:#153472;}</style></defs><path class="a" d="M29.2,10H.8A.778.778,0,0,1,0,9.25V7A3.113,3.113,0,0,1,3.214,4H6.429V.75a.778.778,0,0,1,.8-.75H9.911a.778.778,0,0,1,.8.75V4h8.571V.75a.778.778,0,0,1,.8-.75h2.679a.778.778,0,0,1,.8.75V4h3.214A3.113,3.113,0,0,1,30,7V9.25A.778.778,0,0,1,29.2,10ZM.8,12H29.2a.778.778,0,0,1,.8.75V29a3.113,3.113,0,0,1-3.214,3H3.214A3.113,3.113,0,0,1,0,29V12.75A.778.778,0,0,1,.8,12Zm22.319,6-1.886-1.775a.845.845,0,0,0-1.136,0L13,22.792l-3.079-2.9a.845.845,0,0,0-1.136,0l-1.9,1.761a.715.715,0,0,0,0,1.061l5.531,5.2a.845.845,0,0,0,1.136,0l9.573-8.863a.715.715,0,0,0,0-1.061Z"/></svg>