<svg xmlns="http://www.w3.org/2000/svg" width="30" height="30" viewBox="0 0 30 30">
  <g id="Group_3620" data-name="Group 3620" transform="translate(2392 -3446)">
    <circle id="Ellipse_4" data-name="Ellipse 4" cx="15" cy="15" r="15" transform="translate(-2392 3446)" fill="#153472"/>
    <path id="Icon_awesome-times" data-name="Icon awesome-times" d="M10.343,13.125l4.264-4.264a1.341,1.341,0,0,0,0-1.9l-.948-.948a1.341,1.341,0,0,0-1.9,0L7.5,10.282,3.236,6.017a1.341,1.341,0,0,0-1.9,0l-.948.948a1.341,1.341,0,0,0,0,1.9l4.264,4.264L.392,17.389a1.341,1.341,0,0,0,0,1.9l.948.948a1.341,1.341,0,0,0,1.9,0L7.5,15.968l4.264,4.264a1.341,1.341,0,0,0,1.9,0l.948-.948a1.341,1.341,0,0,0,0-1.9Z" transform="translate(-2384.525 3448)" fill="#fff"/>
  </g>
</svg>
