<svg xmlns="http://www.w3.org/2000/svg" width="33" height="32" viewBox="0 0 33 32"><defs><style>.a,.b{fill:#fff;}.b{opacity:0.5;}</style></defs><path class="a" d="M1,6c-.552,0-1-.3-1-.667V.667C0,.3.448,0,1,0S2,.3,2,.667V5.333C2,5.7,1.552,6,1,6Z" transform="translate(7)"/><path class="a" d="M1,6c-.552,0-1-.3-1-.667V.667C0,.3.448,0,1,0S2,.3,2,.667V5.333C2,5.7,1.552,6,1,6Z" transform="translate(23)"/><path class="b" d="M18.491,24.632H2.182a.707.707,0,0,1-.727-.684V8.211a.707.707,0,0,1,.727-.684H29.818a.707.707,0,0,1,.727.684v8.065A7.946,7.946,0,0,1,32,17.424V1.368A1.413,1.413,0,0,0,30.545,0H26.182V2.737a2.186,2.186,0,0,1-4.364,0V0H10.182V2.737A2.12,2.12,0,0,1,8,4.789,2.12,2.12,0,0,1,5.818,2.737V0H1.455A1.413,1.413,0,0,0,0,1.368V24.632A1.413,1.413,0,0,0,1.455,26H19.062A7.2,7.2,0,0,1,18.491,24.632Z" transform="translate(0 3)"/><path class="a" d="M6.5,13A6.5,6.5,0,1,1,13,6.5,6.507,6.507,0,0,1,6.5,13ZM2.9,6.509a.722.722,0,0,0-.519,1.224L4.545,9.9a.721.721,0,0,0,1.022,0l5.055-5.055A.722.722,0,0,0,9.6,3.822L5.055,8.367,3.4,6.711A.718.718,0,0,0,2.9,6.509Z" transform="translate(20 19)"/></svg>