<svg xmlns="http://www.w3.org/2000/svg" width="45" height="45.002" viewBox="0 0 45 45.002"><defs><style>.a{fill:#dcddde;}</style></defs><path class="a" d="M49.478,48.365c-.844-3.727-5.66-5.543-7.325-6.129a54.61,54.61,0,0,0-6.106-1.172,6.2,6.2,0,0,1-2.824-1.3c-.469-.563-.188-5.778-.188-5.778a17.383,17.383,0,0,0,1.336-2.543A32.8,32.8,0,0,0,35.357,27s.961,0,1.3-1.688c.363-1.84.938-2.555.867-3.926-.07-1.348-.809-1.313-.809-1.313a20.547,20.547,0,0,0,.8-6.012c.105-4.817-3.668-9.563-10.5-9.563-6.926,0-10.618,4.746-10.512,9.563a21.432,21.432,0,0,0,.785,6.012s-.738-.035-.809,1.313c-.07,1.371.5,2.086.867,3.926C17.672,27,18.645,27,18.645,27a32.8,32.8,0,0,0,.984,4.442,17.383,17.383,0,0,0,1.336,2.543s.281,5.215-.188,5.778a6.2,6.2,0,0,1-2.824,1.3,54.61,54.61,0,0,0-6.106,1.172c-1.664.586-6.481,2.4-7.325,6.129A.937.937,0,0,0,5.449,49.5H48.564A.935.935,0,0,0,49.478,48.365Z" transform="translate(-4.501 -4.5)"/></svg>