<svg xmlns="http://www.w3.org/2000/svg" width="52.617" height="34.195" viewBox="0 0 52.617 34.195"><defs><style>.a{fill:#dcddde;}</style></defs><path class="a" d="M40.91,39.223c-1.312-.469-3.457-.492-4.406-.855a6.225,6.225,0,0,1-2.039-.949c-.34-.41-.34-3.34-.34-3.34a5.4,5.4,0,0,0,1.16-1.641,18.234,18.234,0,0,0,.563-3.223s.773.328,1.078-1.219c.258-1.336.75-2.039.621-3.023s-.68-.75-.68-.75.68-1,.68-4.383c0-3.492-2.637-6.926-7.57-6.926s-7.582,3.445-7.582,6.926c0,3.387.668,4.383.668,4.383s-.551-.234-.68.75S22.734,26.66,23,28c.3,1.559,1.078,1.219,1.078,1.219a18.41,18.41,0,0,0,.563,3.223,5.4,5.4,0,0,0,1.16,1.641s0,2.93-.34,3.34a5.991,5.991,0,0,1-2.039.938c-.937.363-3.082.41-4.406.879a8.27,8.27,0,0,0-5.367,7.875H46.266A8.254,8.254,0,0,0,40.91,39.223Z" transform="translate(-3.691 -12.914)"/><path class="a" d="M16.406,33.516s2.8-.094,3.914-1.09c-1.816-2.754-.832-5.965-1.207-8.965s-2.074-4.781-5.473-4.781h-.047c-3.281,0-5.051,1.781-5.426,4.781s.668,6.563-1.2,8.965c1.113,1.008,3.926.973,3.926.973h0a5.935,5.935,0,0,1-.117,1.969,2.959,2.959,0,0,1-1.406.645,27.19,27.19,0,0,0-3.035.844,4.934,4.934,0,0,0-2.648,4.359H13.1c.258-.937,2.027-2.613,3.75-3.492a7.869,7.869,0,0,1,2.895-.609s.445-.7-1.02-.973a9.99,9.99,0,0,1-2.25-.785C16.254,35.1,16.406,33.516,16.406,33.516Z" transform="translate(-3.691 -12.914)"/><path class="a" d="M43.594,33.516s-2.8-.094-3.914-1.09c1.816-2.754.832-5.965,1.207-8.965s2.074-4.781,5.473-4.781h.047c3.281,0,5.051,1.781,5.426,4.781s-.668,6.563,1.2,8.965c-1.113,1.008-3.926.973-3.926.973h0a5.935,5.935,0,0,0,.117,1.969,2.959,2.959,0,0,0,1.406.645,27.19,27.19,0,0,1,3.035.844,4.934,4.934,0,0,1,2.648,4.359H46.9c-.258-.937-2.027-2.613-3.75-3.492a7.869,7.869,0,0,0-2.895-.609s-.445-.7,1.02-.973a9.99,9.99,0,0,0,2.25-.785C43.746,35.1,43.594,33.516,43.594,33.516Z" transform="translate(-3.691 -12.914)"/></svg>