<?xml version="1.0" encoding="UTF-8" standalone="no"?>
<svg
   xmlns:dc="http://purl.org/dc/elements/1.1/"
   xmlns:cc="http://creativecommons.org/ns#"
   xmlns:rdf="http://www.w3.org/1999/02/22-rdf-syntax-ns#"
   xmlns:svg="http://www.w3.org/2000/svg"
   xmlns="http://www.w3.org/2000/svg"
   id="svg76"
   version="1.1"
   viewBox="0 0 898.08 396.9">
  <metadata
     id="metadata80">
    <rdf:RDF>
      <cc:Work
         rdf:about="">
        <dc:format>image/svg+xml</dc:format>
        <dc:type
           rdf:resource="http://purl.org/dc/dcmitype/StillImage" />
      </cc:Work>
    </rdf:RDF>
  </metadata>
  <defs
     id="defs4">
    <style
       id="style2">.cls-1{fill:#003773;}.cls-2{fill:#bed73d;}.cls-3{fill:#808285;}.cls-4{fill:#6a737b;}</style>
  </defs>
  <title
     id="title6">Asset 1@300</title>
  <g
     data-name="Layer 2"
     id="Layer_2">
    <g
       data-name="Layer 1"
       id="Layer_1-2">
      <path
         id="path8"
         d="M34.69,160.48h9.15l33.73,86h-8.5l-10.58-27H19l-10.46,27H0Zm-13,52H55.56L38.9,168.31Z"
         class="cls-1" />
      <path
         id="path10"
         d="M129.77,204.48c-2-9.11-7.57-14.67-17.28-14.67-14.32,0-21.42,13-21.42,26s7.1,26,21.42,26c9.23,0,16.8-7.22,17.75-17.4h7.46c-2,14.68-11.6,23.67-25.21,23.67-18.7,0-28.87-14.79-28.87-32.31s10.17-32.3,28.87-32.3c13,0,23.08,7,24.73,20.94Z"
         class="cls-1" />
      <path
         id="path12"
         d="M194.58,204.48c-2-9.11-7.57-14.67-17.28-14.67-14.32,0-21.42,13-21.42,26s7.1,26,21.42,26c9.23,0,16.81-7.22,17.75-17.4h7.46c-2,14.68-11.6,23.67-25.21,23.67-18.69,0-28.87-14.79-28.87-32.31s10.18-32.3,28.87-32.3c13,0,23.08,7,24.74,20.94Z"
         class="cls-1" />
      <path
         id="path14"
         d="M220.31,217.48c.12,11.08,5.91,24.48,20.52,24.48,11.1,0,17.13-6.52,19.55-15.48H268c-3.26,13.67-11.46,21.87-27.15,21.87-19.8,0-28.13-15.2-28.13-32.94,0-16.42,8.33-32.95,28.13-32.95,20,0,28,17.5,27.39,35Zm40.31-6c-.36-11.46-7.48-22.2-19.79-22.2s-19.31,10.86-20.52,22.2Z"
         class="cls-1" />
      <path
         id="path16"
         d="M318,202.48c-.37-9.45-7.64-13.7-16.37-13.7-6.79,0-14.79,2.67-14.79,10.79,0,6.79,7.76,9.22,13,10.55l10.19,2.3c8.72,1.34,17.82,6.43,17.82,17.34,0,13.57-13.46,18.79-25.1,18.79-14.54,0-24.49-6.79-25.7-22.07h7.64c.61,10.3,8.24,15.64,18.43,15.64,7.15,0,17.09-3.15,17.09-11.87,0-7.28-6.79-9.7-13.7-11.4l-9.82-2.18c-9.94-2.67-17.45-6.07-17.45-16.73,0-12.73,12.48-17.58,23.51-17.58,12.49,0,22.43,6.55,22.91,20.12Z"
         class="cls-1" />
      <path
         id="path18"
         d="M378.24,202.48c-.37-9.45-7.64-13.7-16.36-13.7-6.79,0-14.79,2.67-14.79,10.79,0,6.79,7.75,9.22,13,10.55l10.18,2.3c8.73,1.34,17.82,6.43,17.82,17.34,0,13.57-13.46,18.79-25.09,18.79-14.55,0-24.49-6.79-25.7-22.07h7.63c.61,10.3,8.25,15.64,18.43,15.64,7.15,0,17.09-3.15,17.09-11.87,0-7.28-6.79-9.7-13.69-11.4l-9.83-2.18c-9.94-2.67-17.45-6.07-17.45-16.73,0-12.73,12.49-17.58,23.52-17.58,12.48,0,22.42,6.55,22.91,20.12Z"
         class="cls-1" />
      <polygon
         id="polygon20"
         points="408.17 160.48 467.17 160.48 467.17 167.48 416.17 167.48 416.17 198.48 464.17 198.48 464.17 205.48 416.17 205.48 416.17 239.48 468.17 239.48 468.17 246.48 408.17 246.48 408.17 160.48"
         class="cls-2" />
      <path
         id="path22"
         d="M506.68,160.48h9.15l33.73,86h-8.5l-10.58-27H491l-10.47,27H472Zm-13.05,52h33.92l-16.66-44.17Z"
         class="cls-2" />
      <path
         id="path24"
         d="M560.17,160.48h37.9c15.38,0,25.46,9,25.46,24.5s-10.08,24.5-25.46,24.5h-29.9v37h-8Zm8,42h28.05c11.26,0,19-5.75,19-17.5s-7.79-17.5-19-17.5H568.17Z"
         class="cls-2" />
      <path
         id="path26"
         d="M832.8,183.75c.06,11.84-3.24,22.35-6.38,32.27.12,1.69-7.13,22.74-9.8,37-2.58,13.8-6.88,26.73-3.94,39.71a7.08,7.08,0,0,0,3.64,4.74c-2.67-13.36,2-26.7,4.8-40.91,3-15.19,11.3-37.67,11.15-39.47,3.59-10.58,7.35-21.8,7.29-34.44,0-8.59-3.35-16.69-4.17-25.48-3.53-37.63-10.28-78.3-28.1-101.79-2.41,3-2.53,6.68-1.8,10.65,14.88,22.2,20.63,59.4,23.66,93.88C829.87,168.12,832.77,175.7,832.8,183.75Z"
         class="cls-3" />
      <path
         id="path28"
         d="M751.06,12.67c12.45,10.53,15.62,32,26.52,44.37-.12-3.53-1.59-7.67-3-12-10.81-13.43-14.79-34.4-28.17-45-5,2.24-3.11,12.46-2.27,16.45a71.09,71.09,0,0,0,6.13,16.36,46.87,46.87,0,0,1-1.21-4.73C748.33,24.35,746.65,14.77,751.06,12.67Z"
         class="cls-3" />
      <path
         id="path30"
         d="M790.72,56.68c5.19,11.44,9.54,23.72,15.69,33.75-.34-6.28-3.94-13.67-3.84-19.81-3.79-7.67-7.18-15.84-11-23.65-5.8-12-16.57-33.75-19.79-33.18s-1.53,11.35.23,17.13c.14-1.82-.61-4.25,1.3-5.33S785.63,45.45,790.72,56.68Z"
         class="cls-3" />
      <path
         id="path32"
         d="M727.87,23.68c2.75-1.71,4.14,1,10.72,7.11,10.12,12.59,16.27,29.86,27.54,41.11a53,53,0,0,0-2.57-8.71c-12.81-12-19.82-30.42-31.34-43.86-4.7-8.08-11.26-11.88-10.71.09,2,13.7,7.2,24,13.08,33.43.85.9,1.68,1.84,2.52,2.79C733.5,48.52,729.23,33.43,727.87,23.68Z"
         class="cls-3" />
      <path
         id="path34"
         d="M885,307.28c-.41-6-4.08-9.27-22.25-14.46.65,1.18,21.25,7.09,19.28,17.43,3,.37,13.35,4.82,9.64,10.38-4.36-6.27-24.1-6.67-27.81-2.59-1.4.77-6.34-1.37-15.48,1.4C830.22,325,811.59,344,725,347.25c-2,2.76-4.6,7.44-9.9,7.1,2.28,4.65-8.32,3.59-11-.7,3.41.35,3.2-1.49,2.91-3.22-.44-2.74-4.83-4-8.34-5.51-21.11-4.92-29.91-6.26-48.8-1.17-21.61,5.83-60.21,19.64-80,26.24-10,3.33-43.85,18.18-46.31,16.12-1-1.52,12.07-9.83,17.13-13.25C546.21,369.2,567,356,562.4,351.55,558.7,348,499.66,355.74,492,359c14.17-.69,61.2-8.12,59.51-.77-1.34,5.81-37.24,31.58-59.15,38.64,12.27,0,24.32-4.59,35.74-8.16,22.61-7.05,70.24-25.83,94.86-32.05,21.52-5.44,45.41-11.4,62.25-6.72,4,1.66,12.21,4.81,12.72,7.74.32,1.84.56,3.81-3.32,3.44,3,4.58,15.11,5.7,12.51.74,6,.37,7.28-1.49,9.6-4.43,10.66-2.7,10.75-8.78,12.52-9,10.65-1.38,49.32,4.82,113-20.45,5.31-2.1,25.13-4.51,26.72-5.33,2.65-1.78,21.94-3.89,26,6.49C902.67,323.3,894.67,312.85,885,307.28Z"
         class="cls-3" />
      <path
         id="path36"
         d="M753.81,86.3c-1.29-6.3-3.37-11.49-8.56-16.16,1.14,2.2,3.64,8.3,3.89,10.38-3.89,0-6.67-6-10.12-10.12-2.48-3-9.25-12.75-10.9-14.28,3,4.47,9.09,15.84,12.2,20C743.25,80,748.22,86.57,753.81,86.3Z"
         class="cls-3" />
      <path
         id="path38"
         d="M726.62,134.05C718.5,121.13,706,115.93,712.7,103c4.28-8.32-6.74-23.7-2.33-27.1-.81-2,6.86,1.32,2.58-10.85,1.08-1,.08-3.34-.21-5-.23-1.23,2-3,1.71-4.34-.39-1.54-2.74-5.2-2.43-6.5.24-1.07,1.17.45,2.43-.22,1.28-1-.64-5.59-1.4-6.55-1.43-1.78-1.22-5.32-8.76-11.33,0,.07-1,0-.67,1s.51,7.21-.53,6.71-1-.44-1.15.21c-.35,1.39,2.33,5.29,2.77,6.94.37,1.41-2.2,3.32-2,4.63.34,1.77,1.49,4.28.24,5.33,4.88,13-3.86,9.45-2.93,11.58-5,3.64,7.53,20.06,2.65,28.93-7.61,13.86,6.61,19.4,15.86,33.19,5.69,8.49,28.83,32.87,26,38.21-5.19,9.86-25,9.58-25,9.58-7.55,2.88,5.61,28,2.31,30.89-.44,3.33-14.36,4.43-13.4,6.79.17,1.73,8.7-3.77,11.32,4.83-2.77,9.86-17.56,18-14,29.57,3.29,10.7,12,20,10.06,31.39-1.38,8.19-4.1,16-10.1,22.7a41.62,41.62,0,0,1-6,5.4c6.09-3.44,11.91-7.48,15.62-11.91,5.27-6.31,7.67-13.58,8.87-21.26,1.68-10.66-5.94-19.39-8.83-29.4-3.13-10.87,9.85-18.47,12.28-27.71-2.29-8.06-9.79-2.91-9.94-4.52-.84-2.22,11.38-3.25,11.76-6.37,2.9-2.72-8.65-26.23-2-28.94,0,0,17.35.27,21.9-9C751.93,164.84,731.61,142,726.62,134.05Z"
         class="cls-1" />
      <path
         id="path40"
         d="M696.27,68.76c-6.45-13.91-21.07-25-27.68-39.16a50.39,50.39,0,0,1-2.4-6,41.86,41.86,0,0,0-11.86-9.32c-3.87,3.18.14,12.24,1.79,15.76a49.43,49.43,0,0,0,2.66,4.89l0,0C672,44.85,682.32,60.43,696.27,68.76Z"
         class="cls-2" />
      <path
         id="path42"
         d="M695.06,45.55c.42-1-1-3.95-1-6.15-.19-.32-.37-.64-.55-1-4.66-6.36-9.53-12.25-15.82-15.59a16.88,16.88,0,0,0-.22,2.43c5.55,6.4,10.48,14.11,16.12,20.3A1.66,1.66,0,0,0,695.06,45.55Z"
         class="cls-2" />
      <path
         id="path44"
         d="M691.31,85.11C680.08,70.21,664.45,63.55,655.73,44c-.94-.75-1.9-1.49-2.88-2.18-2.47,2.53-5.78,0-7.7,1.87A59.21,59.21,0,0,0,655.63,59.9c8.41,6.54,17.15,15,24.3,19.83C683.28,82,686.78,86.38,691.31,85.11Z"
         class="cls-2" />
      <path
         id="path46"
         d="M686.44,181.17s14.84-3.25,17-12.47c1.15-5-20.52-21.42-26.3-27.57-9.38-10-21-12.13-17.79-25.13,2.06-8.34-10.27-19.94-7.16-23.89-1.07-1.63,6.1-.18.13-10.26.74-1.11-.56-3-1.13-4.44-.43-1.07,1.16-3.13.63-4.25-.62-1.31-3.33-4.12-3.31-5.36,0-1,1.09.18,2-.68.91-1.15-1.61-4.89-2.45-5.6-1.55-1.31-2-4.54-9.62-8.42,0,.06-.87.19-.39,1s1.81,6.37.83,6.13-.93-.19-.94.41c0,1.33,3,4.3,3.69,5.69.58,1.19-1.25,3.43-.78,4.55.62,1.52,2.08,3.55,1.22,4.74,6.64,10.7-1.49,9.27-.29,11-3.59,4.27,10.24,16.5,7.77,25.46-3.84,14,9.34,16.1,19.85,26.63,6.48,6.48,30.85,23.74,29.47,29.1-2.54,9.9-19.43,13.62-19.43,13.62-5.9,4.11,10.1,24,7.85,27.29.26,3.08-11.4,6.87-10.13,8.8.48,1.52,6.7-5.14,10.58,2.06-.48,9.42-11.55,19.68-6.29,29.39,4.85,8.94,14,15.56,14.56,26.17.39,7.64-.45,15.17-4.28,22.43a38.68,38.68,0,0,1-4.11,6.07c4.54-4.33,8.73-9.12,11-13.85,3.29-6.72,3.94-13.75,3.51-20.88-.6-9.92-8.76-16.22-13.14-24.65-4.74-9.13,4.88-18.57,5.19-27.36-3.49-6.78-8.9-.64-9.34-2.07-1.13-1.82,9.08-5.2,8.82-8.08C695.63,203.73,681.31,184.93,686.44,181.17Z"
         class="cls-2" />
      <path
         id="path48"
         d="M206.54,284.48a7.69,7.69,0,0,1,2.59.42,6,6,0,0,1,2.06,1.18,5.39,5.39,0,0,1,1.37,1.9,6.29,6.29,0,0,1,.5,2.54,8.59,8.59,0,0,1-.64,3.38,6.84,6.84,0,0,1-1.75,2.5A7.55,7.55,0,0,1,208,298a10.48,10.48,0,0,1-3.39.53h-8.4l-2.15,10h-2.32l5.18-24Zm-1.74,12a7.25,7.25,0,0,0,2.36-.37,5.7,5.7,0,0,0,1.92-1.1,4.91,4.91,0,0,0,1.28-1.76,5.81,5.81,0,0,0,.47-2.38,5.26,5.26,0,0,0-.36-2.07,3.42,3.42,0,0,0-1-1.36,4.16,4.16,0,0,0-1.56-.73,8.54,8.54,0,0,0-2-.23H198.7l-2.15,10Z"
         class="cls-4" />
      <path
         id="path50"
         d="M217.43,301.87a7.61,7.61,0,0,0,.3,2.18,4.59,4.59,0,0,0,.92,1.72,4.31,4.31,0,0,0,1.58,1.15,6.05,6.05,0,0,0,5.82-.77,7.84,7.84,0,0,0,2.08-2.67h2.12a9.63,9.63,0,0,1-2.82,4.06,7.92,7.92,0,0,1-5.07,1.54,6.77,6.77,0,0,1-5.25-1.94,7.61,7.61,0,0,1-1.8-5.37,13.48,13.48,0,0,1,.62-4,11.23,11.23,0,0,1,1.83-3.5,9.37,9.37,0,0,1,3-2.49,8.27,8.27,0,0,1,4-.93,7.46,7.46,0,0,1,2.78.48,5.8,5.8,0,0,1,3.36,3.51,8.26,8.26,0,0,1,.43,2.75c0,.49,0,1,0,1.48a13.88,13.88,0,0,1-.14,1.46H217.53A8.83,8.83,0,0,0,217.43,301.87Zm11.69-4.08c0-.21,0-.43,0-.65a4.85,4.85,0,0,0-1.26-3.52,4.61,4.61,0,0,0-3.47-1.31,5.41,5.41,0,0,0-2.4.52,7,7,0,0,0-1.95,1.37,7.8,7.8,0,0,0-1.42,2,8.9,8.9,0,0,0-.84,2.31h11.3C229.1,298.24,229.11,298,229.12,297.79Z"
         class="cls-4" />
      <path
         id="path52"
         d="M247.28,291.25a5.84,5.84,0,0,1,3.57,3.46,7.72,7.72,0,0,1,.5,2.86,15.22,15.22,0,0,1-.6,4.26,11.33,11.33,0,0,1-1.8,3.69,9,9,0,0,1-3,2.59,8.7,8.7,0,0,1-4.21,1,6.61,6.61,0,0,1-5.14-1.94,7.46,7.46,0,0,1-1.78-5.24,13.45,13.45,0,0,1,.64-4.13,10.88,10.88,0,0,1,1.88-3.55,9.57,9.57,0,0,1,3-2.49,8.77,8.77,0,0,1,4.11-.93A8,8,0,0,1,247.28,291.25Zm-2.05,15.2a7.84,7.84,0,0,0,2.21-2.27,10.85,10.85,0,0,0,1.35-3,11.86,11.86,0,0,0,.45-3.15,5.9,5.9,0,0,0-1.28-3.93,4.7,4.7,0,0,0-3.82-1.51,5.61,5.61,0,0,0-3.09.86,7.91,7.91,0,0,0-2.25,2.18,10.22,10.22,0,0,0-1.37,2.95,11.08,11.08,0,0,0-.47,3.14,6.19,6.19,0,0,0,1.27,4.07,4.75,4.75,0,0,0,3.93,1.57A5.42,5.42,0,0,0,245.23,306.45Z"
         class="cls-4" />
      <path
         id="path54"
         d="M260.6,291.48l-.64,3h-.08a9.06,9.06,0,0,1,2.63-2.73,6.87,6.87,0,0,1,3.83-1,7.62,7.62,0,0,1,3,.53,5.83,5.83,0,0,1,2.1,1.48,6.13,6.13,0,0,1,1.26,2.29,10.16,10.16,0,0,1,.41,2.95,13,13,0,0,1-.67,4.11,12.34,12.34,0,0,1-1.94,3.68,10.39,10.39,0,0,1-3.06,2.66,7.93,7.93,0,0,1-4,1,8.74,8.74,0,0,1-2-.23,5.6,5.6,0,0,1-1.72-.7,4.24,4.24,0,0,1-1.27-1.26,4.7,4.7,0,0,1-.69-1.84h.14l-2.15,10h-2.1l5.13-24Zm2.3,2a8.16,8.16,0,0,0-2.37,2.35,11.21,11.21,0,0,0-1.46,3.15,11.72,11.72,0,0,0-.5,3.34,5.19,5.19,0,0,0,1.25,3.66,4.68,4.68,0,0,0,3.58,1.34,5.76,5.76,0,0,0,3.2-.91,7.86,7.86,0,0,0,2.32-2.31,11.07,11.07,0,0,0,1.39-3.11,12.36,12.36,0,0,0,.47-3.27,5.84,5.84,0,0,0-1.14-3.69,4.19,4.19,0,0,0-3.52-1.48A5.68,5.68,0,0,0,262.9,293.5Z"
         class="cls-4" />
      <path
         id="path56"
         d="M283.44,284.48l-5.18,24h-2.08l5.14-24Z"
         class="cls-4" />
      <path
         id="path58"
         d="M287.43,301.87a7.61,7.61,0,0,0,.3,2.18,4.59,4.59,0,0,0,.92,1.72,4.23,4.23,0,0,0,1.58,1.15,5.51,5.51,0,0,0,2.23.42,5.57,5.57,0,0,0,3.59-1.19,8,8,0,0,0,2.08-2.67h2.11a9.46,9.46,0,0,1-2.82,4.06,7.87,7.87,0,0,1-5.06,1.54,6.76,6.76,0,0,1-5.25-1.94,7.61,7.61,0,0,1-1.8-5.37,13.48,13.48,0,0,1,.62-4,11.23,11.23,0,0,1,1.83-3.5,9.45,9.45,0,0,1,2.95-2.49,8.33,8.33,0,0,1,4-.93,7.55,7.55,0,0,1,2.79.48,5.88,5.88,0,0,1,2.06,1.38,5.75,5.75,0,0,1,1.29,2.13,8.26,8.26,0,0,1,.44,2.75c0,.49,0,1,0,1.48s-.07,1-.14,1.46H287.53A8.83,8.83,0,0,0,287.43,301.87Zm11.69-4.08c0-.21,0-.43,0-.65a4.85,4.85,0,0,0-1.26-3.52,4.61,4.61,0,0,0-3.48-1.31,5.4,5.4,0,0,0-2.39.52,7,7,0,0,0-1.95,1.37,7.84,7.84,0,0,0-1.43,2,9.7,9.7,0,0,0-.84,2.31H299.1C299.1,298.24,299.11,298,299.12,297.79Z"
         class="cls-4" />
      <path
         id="path60"
         d="M321.23,291.48l-3.66,17h-2l3.62-17Zm1.5-7-.74,3h-2.12l.74-3Z"
         class="cls-4" />
      <path
         id="path62"
         d="M329.42,291.48l-.57,3H329a8.31,8.31,0,0,1,2.39-2.45,6.66,6.66,0,0,1,3.74-1.16,7.69,7.69,0,0,1,2,.26,4.6,4.6,0,0,1,1.64.82,3.5,3.5,0,0,1,1.08,1.42,5.2,5.2,0,0,1,.38,2.11,11.73,11.73,0,0,1-.26,2l-2.36,11h-2.16l2.37-11c.07-.26.12-.54.17-.84a6.36,6.36,0,0,0,.06-.87,3.19,3.19,0,0,0-.29-1.43,2.8,2.8,0,0,0-.79-.94,3.32,3.32,0,0,0-1.14-.53,5.85,5.85,0,0,0-1.34-.16,5,5,0,0,0-2.17.49,6.78,6.78,0,0,0-1.94,1.4,8.71,8.71,0,0,0-1.55,2.21,11.53,11.53,0,0,0-1,2.92L326,308.48h-2l3.63-17Z"
         class="cls-4" />
      <path
         id="path64"
         d="M361.93,292.48l-3.52,16h-2.18l3.53-16h-3l.4-1h3l.53-2.7a6.15,6.15,0,0,1,1.45-3,4.15,4.15,0,0,1,3.18-1.11c.38,0,.75,0,1.11,0a4.39,4.39,0,0,1,1.07.2l-.36,1.74-.66-.13a3.5,3.5,0,0,0-.65-.07,3.1,3.1,0,0,0-2.12.59,3.69,3.69,0,0,0-.94,1.86l-.5,2.6h3.42l-.4,1Z"
         class="cls-4" />
      <path
         id="path66"
         d="M379.42,291.25a5.93,5.93,0,0,1,2.16,1.32,5.79,5.79,0,0,1,1.41,2.14,7.52,7.52,0,0,1,.51,2.86,15.23,15.23,0,0,1-.61,4.26,11.52,11.52,0,0,1-1.79,3.69,9,9,0,0,1-3,2.59,8.7,8.7,0,0,1-4.21,1,6.61,6.61,0,0,1-5.14-1.94A7.51,7.51,0,0,1,367,301.9a13.74,13.74,0,0,1,.63-4.13,10.88,10.88,0,0,1,1.88-3.55,9.57,9.57,0,0,1,3-2.49,8.82,8.82,0,0,1,4.11-.93A7.93,7.93,0,0,1,379.42,291.25Zm-2.05,15.2a8,8,0,0,0,2.22-2.27,10.82,10.82,0,0,0,1.34-3,11.86,11.86,0,0,0,.45-3.15,5.89,5.89,0,0,0-1.27-3.93,4.73,4.73,0,0,0-3.83-1.51,5.65,5.65,0,0,0-3.09.86,7.75,7.75,0,0,0-2.24,2.18,10,10,0,0,0-1.38,2.95,11.45,11.45,0,0,0-.47,3.14,6.19,6.19,0,0,0,1.27,4.07,4.75,4.75,0,0,0,3.93,1.57A5.4,5.4,0,0,0,377.37,306.45Z"
         class="cls-4" />
      <path
         id="path68"
         d="M401,294.82a3.28,3.28,0,0,0-.82-1.22,3.46,3.46,0,0,0-1.27-.77,4.84,4.84,0,0,0-1.65-.27,5.89,5.89,0,0,0-3.14.8,7.31,7.31,0,0,0-2.22,2.07,9.07,9.07,0,0,0-1.32,2.87,12.14,12.14,0,0,0-.44,3.19,7.32,7.32,0,0,0,.28,2,4.43,4.43,0,0,0,.84,1.63,4,4,0,0,0,1.44,1.07,5.05,5.05,0,0,0,2,.38,5.15,5.15,0,0,0,3.4-1.15,6.54,6.54,0,0,0,2-3h2a8.65,8.65,0,0,1-2.81,4.33,7.76,7.76,0,0,1-4.88,1.45,6,6,0,0,1-4.71-1.85,7.1,7.1,0,0,1-1.64-4.92,12.69,12.69,0,0,1,.6-3.82,11.08,11.08,0,0,1,1.76-3.42,9.25,9.25,0,0,1,2.8-2.44,7.51,7.51,0,0,1,3.77-.94,9,9,0,0,1,2.49.33,5.35,5.35,0,0,1,2,1,4.7,4.7,0,0,1,1.28,1.75,6.14,6.14,0,0,1,.41,2.49h-2A3.87,3.87,0,0,0,401,294.82Z"
         class="cls-4" />
      <path
         id="path70"
         d="M418.37,308.48l.58-3h-.12a8.19,8.19,0,0,1-2.94,2.78,6.05,6.05,0,0,1-2.88.8,8.4,8.4,0,0,1-2.36-.24A4.49,4.49,0,0,1,409,308a3.64,3.64,0,0,1-1.08-1.43,5.29,5.29,0,0,1-.38-2.1,11.09,11.09,0,0,1,.27-2l2.35-11h2.17l-2.38,11c-.06.26-.12.54-.16.84a6.38,6.38,0,0,0-.07.87,3.13,3.13,0,0,0,.3,1.42,2.63,2.63,0,0,0,.79,1,3.32,3.32,0,0,0,1.14.53,5.32,5.32,0,0,0,1.33.16,5,5,0,0,0,2.19-.49,6.66,6.66,0,0,0,1.91-1.4,9,9,0,0,0,1.53-2.21,12.39,12.39,0,0,0,1-2.92l1.88-8.73h2.08l-3.66,17Z"
         class="cls-4" />
      <path
         id="path72"
         d="M429.17,305.72a3.82,3.82,0,0,0,1.17,1.42,4.38,4.38,0,0,0,1.67.75,8.71,8.71,0,0,0,1.9.21,6.18,6.18,0,0,0,1.56-.2,4.81,4.81,0,0,0,1.5-.6,3.59,3.59,0,0,0,1.11-1.05,2.55,2.55,0,0,0,.45-1.52,2.48,2.48,0,0,0-.45-1.53,4.23,4.23,0,0,0-1.13-1.05,8,8,0,0,0-1.58-.78l-1.78-.69c-.59-.24-1.18-.49-1.77-.77a6.89,6.89,0,0,1-1.59-1,4.73,4.73,0,0,1-1.12-1.39,4.08,4.08,0,0,1-.42-1.93,3.93,3.93,0,0,1,.64-2.29,5.25,5.25,0,0,1,1.63-1.55,7.64,7.64,0,0,1,2.2-.89,10.48,10.48,0,0,1,5,0,5.45,5.45,0,0,1,2.07,1,4.66,4.66,0,0,1,1.35,1.83,6.53,6.53,0,0,1,.45,2.71h-2.24a3.79,3.79,0,0,0-.25-1.81,3.23,3.23,0,0,0-.9-1.24,3.78,3.78,0,0,0-1.41-.73,6.48,6.48,0,0,0-1.74-.23,9.28,9.28,0,0,0-1.54.14,5.23,5.23,0,0,0-1.46.49,3.08,3.08,0,0,0-1.1.93,2.65,2.65,0,0,0-.44,1.57,2,2,0,0,0,.32,1.14,3.21,3.21,0,0,0,.85.88,6.75,6.75,0,0,0,1.22.71c.47.22,1,.43,1.48.64l2,.8a9.21,9.21,0,0,1,1.92,1,5.79,5.79,0,0,1,1.46,1.46,3.69,3.69,0,0,1,.59,2.13,4.91,4.91,0,0,1-.66,2.63,5.14,5.14,0,0,1-1.72,1.72,7.55,7.55,0,0,1-2.38.94,12.46,12.46,0,0,1-2.63.29,9.45,9.45,0,0,1-2.61-.36,6,6,0,0,1-2.22-1.13,5.63,5.63,0,0,1-1.53-2,6.49,6.49,0,0,1-.5-3h2.21A4.94,4.94,0,0,0,429.17,305.72Z"
         class="cls-4" />
    </g>
  </g>
</svg>
