<svg xmlns="http://www.w3.org/2000/svg" width="26" height="20.8" viewBox="0 0 26 20.8">
  <path id="Icon_awesome-microphone-slash" data-name="Icon awesome-microphone-slash" d="M25.749,18.61l-6.411-4.955A6.981,6.981,0,0,0,20.15,10.4V8.45a.65.65,0,0,0-.65-.65h-.65a.65.65,0,0,0-.65.65V10.4a5.053,5.053,0,0,1-.436,2.039l-1.079-.834A3.825,3.825,0,0,0,16.9,10.4V3.9a3.9,3.9,0,1,0-7.8,0V5.743L1.847.137A.65.65,0,0,0,.935.251l-.8,1.027a.65.65,0,0,0,.114.912l23.9,18.473a.65.65,0,0,0,.912-.114l.8-1.027a.65.65,0,0,0-.115-.912Zm-9.5.24H13.975V17.478a7.074,7.074,0,0,0,1.368-.338l-2.036-1.573a5.238,5.238,0,0,1-.827.008,5.261,5.261,0,0,1-4.517-4.138L5.85,9.8v.278a7.374,7.374,0,0,0,6.175,7.381V18.85H9.75a.65.65,0,0,0-.65.65v.65a.65.65,0,0,0,.65.65h6.5a.65.65,0,0,0,.65-.65V19.5A.65.65,0,0,0,16.25,18.85Z" transform="translate(0)" fill="#153472"/>
</svg>
