<svg xmlns="http://www.w3.org/2000/svg" width="24" height="24.046" viewBox="0 0 24 24.046"><defs><style>.a{fill:#153472;}</style></defs><path class="a" d="M17.945,6.054a5.745,5.745,0,0,1,4.538,4.538M17.945,1.458a10.54,10.54,0,0,1,6.011,2.809,10.128,10.128,0,0,1,3.124,6.314M25.931,19.75V23.2a2.3,2.3,0,0,1-2.5,2.3A23.365,23.365,0,0,1,17.963,24.2a22.059,22.059,0,0,1-4.453-2.237,22.405,22.405,0,0,1-6.894-6.894A22.738,22.738,0,0,1,3.089,5.112a2.3,2.3,0,0,1,2.286-2.5H8.823a2.3,2.3,0,0,1,2.3,1.976,14.753,14.753,0,0,0,.8,3.229,2.3,2.3,0,0,1-.517,2.424L9.949,11.7a18.384,18.384,0,0,0,6.894,6.894L18.3,17.13a2.3,2.3,0,0,1,2.424-.517,14.753,14.753,0,0,0,3.229.8,2.3,2.3,0,0,1,1.976,2.332Z" transform="translate(-3.08 -1.458)"/></svg>