<svg xmlns="http://www.w3.org/2000/svg" width="36" height="36" viewBox="0 0 36 36"><defs><style>.a,.b{fill:#fff;}.a{opacity:0.5;}</style></defs><path class="a" d="M13.126.727A18.58,18.58,0,0,0,2.866.718,3.768,3.768,0,0,0,0,4.318V5.25A.776.776,0,0,0,.8,6H15.2a.776.776,0,0,0,.8-.75V4.328A3.772,3.772,0,0,0,13.126.727Z" transform="translate(8 18)"/><path class="a" d="M4.5,10C7.034,10,9,7.105,9,4.615A4.563,4.563,0,0,0,4.5,0,4.563,4.563,0,0,0,0,4.615C0,7.105,1.966,10,4.5,10Z" transform="translate(12 6)"/><path class="b" d="M2.213,0A18.136,18.136,0,0,1,0,2.213L5.787,8,8,5.786Z" transform="translate(28 28)"/><path class="b" d="M16.5,33A16.5,16.5,0,1,1,33,16.5,16.519,16.519,0,0,1,16.5,33Zm0-31.429A14.929,14.929,0,1,0,31.429,16.5,14.945,14.945,0,0,0,16.5,1.571Z" transform="translate(0 0)"/></svg>