<svg xmlns="http://www.w3.org/2000/svg" width="46" height="36" viewBox="0 0 46 36"><defs><style>.a,.b{fill:#fff;}.b{opacity:0.497;}</style></defs><path class="a" d="M10.631,32.841,0,22l3-3,8,5L34,0l3,2L13.65,32.653a2,2,0,0,1-3.019.188Z"/><path class="b" d="M6,2H1A1,1,0,0,1,1,0H6A1,1,0,0,1,6,2Z" transform="translate(39 7)"/><path class="b" d="M13,2H1A1,1,0,0,1,1,0H13a1,1,0,0,1,0,2Z" transform="translate(32 16)"/><path class="b" d="M20,2H1A1,1,0,0,1,1,0H20a1,1,0,0,1,0,2Z" transform="translate(25 25)"/><path class="b" d="M27,2H1A1,1,0,0,1,1,0H27a1,1,0,0,1,0,2Z" transform="translate(18 34)"/></svg>