<svg xmlns="http://www.w3.org/2000/svg" width="34" height="27.202" viewBox="0 0 34 27.202"><defs><style>.a{fill:#153472;}</style></defs><path class="a" d="M11.9,13.6A6.8,6.8,0,1,0,5.1,6.8,6.8,6.8,0,0,0,11.9,13.6Zm4.76,1.7h-.887a9.248,9.248,0,0,1-7.746,0H7.14A7.142,7.142,0,0,0,0,22.441v2.21A2.551,2.551,0,0,0,2.55,27.2h14.6a2.551,2.551,0,0,1-.138-1.132l.361-3.235.064-.59.42-.42,4.107-4.107A7.068,7.068,0,0,0,16.661,15.3Zm2.407,7.719-.361,3.241a.846.846,0,0,0,.935.935l3.235-.361L30.2,19.508,26.394,15.7,19.067,23.02Zm14.562-8.734-2.014-2.014a1.273,1.273,0,0,0-1.8,0l-2.008,2.008-.218.218,3.815,3.809,2.221-2.221a1.279,1.279,0,0,0,0-1.8Z"/></svg>