<svg xmlns="http://www.w3.org/2000/svg" width="22" height="22" viewBox="0 0 22 22">
  <path id="Icon" d="M22,16.471v3.312a2.211,2.211,0,0,1-2.411,2.208A21.919,21.919,0,0,1,10.042,18.6,21.549,21.549,0,0,1,3.4,11.978a21.82,21.82,0,0,1-3.4-9.571A2.21,2.21,0,0,1,2.21,0H5.529A2.211,2.211,0,0,1,7.741,1.9,14.152,14.152,0,0,0,8.515,5a2.2,2.2,0,0,1-.5,2.329l-1.4,1.4a17.681,17.681,0,0,0,6.637,6.624l1.4-1.4a2.215,2.215,0,0,1,2.334-.5,14.226,14.226,0,0,0,3.108.773A2.209,2.209,0,0,1,22,16.471Z" fill="#fff"/>
</svg>
