<svg xmlns="http://www.w3.org/2000/svg" width="26" height="29.714" viewBox="0 0 26 29.714"><defs><style>.a{fill:rgba(255,255,255,0.6);}</style></defs><path class="a" d="M25.3,27.857H24.143V1.393A1.393,1.393,0,0,0,22.75,0H3.25A1.393,1.393,0,0,0,1.857,1.393V27.857H.7a.7.7,0,0,0-.7.7v1.161H26V28.554A.7.7,0,0,0,25.3,27.857ZM7.429,4.411a.7.7,0,0,1,.7-.7h2.321a.7.7,0,0,1,.7.7V6.732a.7.7,0,0,1-.7.7H8.125a.7.7,0,0,1-.7-.7Zm0,5.571a.7.7,0,0,1,.7-.7h2.321a.7.7,0,0,1,.7.7V12.3a.7.7,0,0,1-.7.7H8.125a.7.7,0,0,1-.7-.7Zm3.018,8.589H8.125a.7.7,0,0,1-.7-.7V15.554a.7.7,0,0,1,.7-.7h2.321a.7.7,0,0,1,.7.7v2.321A.7.7,0,0,1,10.446,18.571Zm4.411,9.286H11.143V22.982a.7.7,0,0,1,.7-.7h2.321a.7.7,0,0,1,.7.7Zm3.714-9.982a.7.7,0,0,1-.7.7H15.554a.7.7,0,0,1-.7-.7V15.554a.7.7,0,0,1,.7-.7h2.321a.7.7,0,0,1,.7.7Zm0-5.571a.7.7,0,0,1-.7.7H15.554a.7.7,0,0,1-.7-.7V9.982a.7.7,0,0,1,.7-.7h2.321a.7.7,0,0,1,.7.7Zm0-5.571a.7.7,0,0,1-.7.7H15.554a.7.7,0,0,1-.7-.7V4.411a.7.7,0,0,1,.7-.7h2.321a.7.7,0,0,1,.7.7Z"/></svg>