<svg xmlns="http://www.w3.org/2000/svg" width="29" height="18.455" viewBox="0 0 29 18.455"><defs><style>.a{fill:rgba(255,255,255,0.6);}</style></defs><path class="a" d="M21.273,15.409a3.955,3.955,0,1,0-3.955-3.955A3.938,3.938,0,0,0,21.273,15.409Zm-10.545,0a3.955,3.955,0,1,0-3.955-3.955A3.938,3.938,0,0,0,10.727,15.409Zm0,2.636c-3.071,0-9.227,1.542-9.227,4.614v3.3H19.955v-3.3C19.955,19.588,13.8,18.045,10.727,18.045Zm10.545,0c-.382,0-.817.026-1.279.066a5.563,5.563,0,0,1,2.6,4.548v3.3H30.5v-3.3C30.5,19.588,24.344,18.045,21.273,18.045Z" transform="translate(-1.5 -7.5)"/></svg>