<svg xmlns="http://www.w3.org/2000/svg" width="26" height="29.714" viewBox="0 0 26 29.714"><defs><style>.a{fill:rgba(255,255,255,0.6);}</style></defs><path class="a" d="M23.214,14.857H8.821V8.874a4.179,4.179,0,1,1,8.357-.052V9.75a1.39,1.39,0,0,0,1.393,1.393h1.857A1.39,1.39,0,0,0,21.821,9.75V8.821a8.822,8.822,0,1,0-17.643.087v5.949H2.786A2.786,2.786,0,0,0,0,17.643v9.286a2.786,2.786,0,0,0,2.786,2.786H23.214A2.786,2.786,0,0,0,26,26.929V17.643A2.786,2.786,0,0,0,23.214,14.857Z" transform="translate(0 0)"/></svg>